<svg width="476" height="223" viewBox="0 0 476 223" fill="none" xmlns="http://www.w3.org/2000/svg">
<path d="M231.896 3.428H228.354V12.5H227.374V3.428H223.832V2.56H231.896V3.428ZM241.925 2.56V12.5H240.959V7.852H235.065V12.5H234.085V2.56H235.065V6.984H240.959V2.56H241.925ZM251.799 11.632V12.5H245.121V2.56H251.673V3.428H246.101V7.012H250.959V7.838H246.101V11.632H251.799Z" fill="white"/>
<path d="M7.28046 101.5C7.79046 98.015 7.96046 94.955 7.96046 90.28V46.42C7.96046 41.745 7.79046 38.685 7.28046 35.2H28.3605C54.7105 35.2 67.9705 49.395 67.9705 68.52C67.9705 86.71 55.0505 101.5 28.3605 101.5H7.28046ZM20.4555 99.8H28.3605C45.2755 99.8 54.6255 88.07 54.6255 68.52C54.6255 48.12 45.2755 36.9 28.3605 36.9H20.4555V99.8ZM100.247 102.86C85.0322 102.86 76.2772 94.445 76.2772 78.465V46.42C76.2772 41.83 76.0222 38.94 75.5122 35.2H89.3672C88.9422 38.855 88.7722 41.83 88.7722 46.42V78.465C88.7722 91.725 93.7022 99.205 104.327 99.205C114.527 99.205 120.222 92.235 120.222 78.465V58.32C120.222 50.245 119.457 40.3 118.352 35.2H124.132C123.027 40.3 122.177 50.16 122.177 58.32V78.465C122.177 94.87 115.037 102.86 100.247 102.86ZM183.299 101.755C171.909 101.67 167.319 97.675 162.729 87.05C158.054 75.915 157.544 68.86 148.874 68.86H146.239V90.28C146.239 94.955 146.409 98.015 146.919 101.5H133.064C133.574 98.015 133.744 94.955 133.744 90.28V46.42C133.744 41.745 133.574 38.685 133.064 35.2H152.444C169.104 35.2 181.344 39.45 181.344 52.115C181.344 62.995 172.419 67.5 156.609 68.435C165.024 69.88 170.634 73.79 175.394 84.925C180.239 95.89 183.724 99.97 188.994 99.97V101.5C186.359 101.67 184.744 101.755 183.299 101.755ZM146.239 67.16H151.509C162.474 67.16 168.509 62.825 168.509 52.115C168.509 41.405 162.644 36.9 152.444 36.9H146.239V67.16ZM244.77 101.755C232.36 101.67 227.43 95.805 223.435 85.095C219.695 74.98 218.165 68.095 213.235 65.63L207.625 71.92V90.28C207.625 94.955 207.795 98.015 208.305 101.5H194.45C194.96 98.015 195.13 94.955 195.13 90.28V46.42C195.13 41.66 194.96 38.685 194.45 35.2H208.305C207.795 38.685 207.625 41.66 207.625 46.42V69.285L222.33 52.625C228.535 45.57 233.975 38.005 235.42 35.2H242.135C236.1 40.81 229.64 47.185 225.475 51.86L217.145 61.21C227.855 63.675 232.105 70.305 236.44 80.93C241.2 92.405 243.325 99.46 250.21 99.97V101.5C247.575 101.67 246.13 101.755 244.77 101.755ZM284.669 102.945C262.144 102.945 248.289 87.05 248.289 68.52C248.289 49.905 262.059 34.18 284.669 34.18C307.364 34.18 321.134 49.905 321.134 68.52C321.134 87.05 307.279 102.945 284.669 102.945ZM262.059 68.52C262.059 88.75 271.239 101.075 284.669 101.075C298.184 101.075 307.364 88.75 307.364 68.52C307.364 48.205 298.269 35.965 284.669 35.965C271.154 35.965 262.059 48.205 262.059 68.52ZM329.197 52.54C326.817 43.87 324.777 38.685 323.417 35.2H339.227C339.312 38.77 340.162 45.06 341.607 49.905L354.527 94.7L365.747 57.725C368.382 49.395 369.657 39.96 369.912 35.2H375.777C374.247 38.6 371.357 46.165 368.892 54.24L356.737 93.935C356.057 96.145 355.802 99.375 356.227 101.5H343.477L329.197 52.54ZM382.841 101.5C383.351 98.015 383.521 94.955 383.521 90.28V46.42C383.521 41.745 383.351 38.685 382.841 35.2H396.696C396.186 38.685 396.016 41.745 396.016 46.42V90.28C396.016 94.955 396.186 98.015 396.696 101.5H382.841ZM439.644 102.945C418.479 102.945 405.304 87.05 405.304 68.605C405.304 49.99 418.734 34.18 441.089 34.18C452.309 34.18 462.084 38.09 470.669 46.505C470.244 49.65 468.289 52.2 464.889 52.2C461.829 52.2 460.214 49.905 458.769 47.27C455.029 41.49 448.569 35.88 440.749 35.88C427.234 35.88 418.139 48.885 418.139 65.29C418.139 85.435 430.464 97.165 445.424 97.165C458.429 97.165 468.969 88.07 471.434 72.94H472.879C470.244 92.49 455.794 102.945 439.644 102.945ZM106.695 190.03C89.7799 190.03 75.1599 176.43 75.1599 156.285C75.1599 137.245 88.2499 121.18 111.115 121.18C122.845 121.18 132.62 125.345 140.865 133.505C140.355 136.99 138.145 139.2 135.17 139.2C132.62 139.2 130.665 137.67 128.965 134.27C124.46 126.875 117.66 122.88 110.86 122.88C97.0899 122.88 88.2499 136.99 88.2499 153.735C88.2499 170.48 97.2599 184.08 112.05 184.08C125.31 184.08 132.875 173.625 134.065 158.24H131.345C125.65 158.24 119.275 158.92 113.58 159.94L111.03 156.455H150.215V158.24H144.01V165.38C144.01 173.54 144.605 182.125 146.05 188.5H131.94C133.3 182.55 133.98 174.56 134.065 166.825C130.07 182.21 119.53 190.03 106.695 190.03ZM207.858 188.755C196.468 188.67 191.878 184.675 187.288 174.05C182.613 162.915 182.103 155.86 173.433 155.86H170.798V177.28C170.798 181.955 170.968 185.015 171.478 188.5H157.623C158.133 185.015 158.303 181.955 158.303 177.28V133.42C158.303 128.745 158.133 125.685 157.623 122.2H177.003C193.663 122.2 205.903 126.45 205.903 139.115C205.903 149.995 196.978 154.5 181.168 155.435C189.583 156.88 195.193 160.79 199.953 171.925C204.798 182.89 208.283 186.97 213.553 186.97V188.5C210.918 188.67 209.303 188.755 207.858 188.755ZM170.798 154.16H176.068C187.033 154.16 193.068 149.825 193.068 139.115C193.068 128.405 187.203 123.9 177.003 123.9H170.798V154.16ZM250.415 189.945C227.89 189.945 214.035 174.05 214.035 155.52C214.035 136.905 227.805 121.18 250.415 121.18C273.11 121.18 286.88 136.905 286.88 155.52C286.88 174.05 273.025 189.945 250.415 189.945ZM227.805 155.52C227.805 175.75 236.985 188.075 250.415 188.075C263.93 188.075 273.11 175.75 273.11 155.52C273.11 135.205 264.015 122.965 250.415 122.965C236.9 122.965 227.805 135.205 227.805 155.52ZM320.13 189.86C304.915 189.86 296.16 181.445 296.16 165.465V133.42C296.16 128.83 295.905 125.94 295.395 122.2H309.25C308.825 125.855 308.655 128.83 308.655 133.42V165.465C308.655 178.725 313.585 186.205 324.21 186.205C334.41 186.205 340.105 179.235 340.105 165.465V145.32C340.105 137.245 339.34 127.3 338.235 122.2H344.015C342.91 127.3 342.06 137.16 342.06 145.32V165.465C342.06 181.87 334.92 189.86 320.13 189.86ZM352.947 188.5C353.457 185.015 353.627 181.955 353.627 177.28V133.42C353.627 128.745 353.457 125.685 352.947 122.2H372.752C389.412 122.2 401.652 126.45 401.652 140.305C401.652 154.16 389.412 158.495 371.902 158.495H366.122V177.28C366.122 181.955 366.292 185.015 366.802 188.5H352.947ZM366.122 156.625H371.902C383.037 156.625 388.902 152.205 388.902 140.305C388.902 128.405 383.037 123.9 372.752 123.9H366.122V156.625Z" fill="white"/>
<path d="M27.8008 211.428H24.2588V220.5H23.2788V211.428H19.7368V210.56H27.8008V211.428ZM37.8297 210.56V220.5H36.8637V215.852H30.9697V220.5H29.9897V210.56H30.9697V214.984H36.8637V210.56H37.8297ZM47.7037 219.632V220.5H41.0257V210.56H47.5777V211.428H42.0057V215.012H46.8637V215.838H42.0057V219.632H47.7037ZM54.5253 220.5V210.56H57.8993C58.954 210.56 59.8313 210.784 60.5313 211.232C61.2406 211.671 61.7726 212.268 62.1273 213.024C62.482 213.771 62.6593 214.601 62.6593 215.516C62.6593 216.524 62.4633 217.401 62.0713 218.148C61.6886 218.895 61.138 219.473 60.4193 219.884C59.71 220.295 58.87 220.5 57.8993 220.5H54.5253ZM61.6793 215.516C61.6793 214.723 61.53 214.018 61.2313 213.402C60.942 212.786 60.5173 212.305 59.9573 211.96C59.3973 211.605 58.7113 211.428 57.8993 211.428H55.5053V219.632H57.8993C58.7206 219.632 59.4113 219.45 59.9713 219.086C60.5313 218.722 60.956 218.232 61.2453 217.616C61.5346 216.991 61.6793 216.291 61.6793 215.516ZM69.2791 220.57C68.4951 220.57 67.8324 220.43 67.2911 220.15C66.7498 219.87 66.3204 219.497 66.0031 219.03C65.6858 218.554 65.4524 218.017 65.3031 217.42C65.1631 216.823 65.0931 216.207 65.0931 215.572V210.56H66.0591V215.572C66.0591 216.085 66.1104 216.589 66.2131 217.084C66.3251 217.579 66.5024 218.022 66.7451 218.414C66.9878 218.806 67.3144 219.119 67.7251 219.352C68.1358 219.576 68.6491 219.688 69.2651 219.688C69.8998 219.688 70.4224 219.571 70.8331 219.338C71.2531 219.095 71.5798 218.778 71.8131 218.386C72.0558 217.994 72.2284 217.555 72.3311 217.07C72.4338 216.575 72.4851 216.076 72.4851 215.572V210.56H73.4651V215.572C73.4651 216.235 73.3904 216.869 73.2411 217.476C73.0918 218.083 72.8491 218.615 72.5131 219.072C72.1864 219.529 71.7571 219.893 71.2251 220.164C70.6931 220.435 70.0444 220.57 69.2791 220.57ZM76.5015 220.5V210.56H80.7015C81.1308 210.56 81.5228 210.649 81.8775 210.826C82.2321 211.003 82.5401 211.246 82.8015 211.554C83.0721 211.853 83.2775 212.189 83.4175 212.562C83.5668 212.926 83.6415 213.299 83.6415 213.682C83.6415 214.158 83.5481 214.606 83.3615 215.026C83.1841 215.446 82.9275 215.801 82.5915 216.09C82.2648 216.379 81.8775 216.571 81.4295 216.664L83.8655 220.5H82.7595L80.4215 216.832H77.4815V220.5H76.5015ZM77.4815 215.964H80.7295C81.1215 215.964 81.4621 215.857 81.7515 215.642C82.0408 215.427 82.2648 215.147 82.4235 214.802C82.5821 214.447 82.6615 214.074 82.6615 213.682C82.6615 213.281 82.5681 212.912 82.3815 212.576C82.2041 212.231 81.9615 211.955 81.6535 211.75C81.3548 211.535 81.0188 211.428 80.6455 211.428H77.4815V215.964ZM86.348 220.5V210.574H87.328V216.342L92.802 210.56H93.88L89.82 214.928L94.09 220.5H92.984L89.19 215.516L87.328 217.448V220.5H86.348ZM99.5012 220.57C98.8012 220.57 98.1665 220.43 97.5972 220.15C97.0278 219.87 96.5378 219.492 96.1272 219.016C95.7165 218.531 95.3992 217.989 95.1752 217.392C94.9512 216.785 94.8392 216.165 94.8392 215.53C94.8392 214.867 94.9558 214.237 95.1892 213.64C95.4225 213.033 95.7492 212.497 96.1692 212.03C96.5985 211.554 97.0978 211.181 97.6672 210.91C98.2365 210.63 98.8525 210.49 99.5152 210.49C100.215 210.49 100.85 210.635 101.419 210.924C101.989 211.213 102.474 211.601 102.875 212.086C103.286 212.571 103.603 213.113 103.827 213.71C104.051 214.307 104.163 214.919 104.163 215.544C104.163 216.207 104.047 216.841 103.813 217.448C103.58 218.045 103.253 218.582 102.833 219.058C102.413 219.525 101.919 219.893 101.349 220.164C100.78 220.435 100.164 220.57 99.5012 220.57ZM95.8192 215.53C95.8192 216.071 95.9078 216.594 96.0852 217.098C96.2625 217.593 96.5145 218.036 96.8412 218.428C97.1678 218.811 97.5552 219.119 98.0032 219.352C98.4605 219.576 98.9598 219.688 99.5012 219.688C100.071 219.688 100.579 219.571 101.027 219.338C101.485 219.095 101.872 218.778 102.189 218.386C102.516 217.985 102.763 217.537 102.931 217.042C103.099 216.547 103.183 216.043 103.183 215.53C103.183 214.989 103.095 214.471 102.917 213.976C102.74 213.481 102.483 213.038 102.147 212.646C101.821 212.254 101.433 211.946 100.985 211.722C100.537 211.498 100.043 211.386 99.5012 211.386C98.9412 211.386 98.4325 211.503 97.9752 211.736C97.5272 211.969 97.1398 212.287 96.8132 212.688C96.4958 213.08 96.2485 213.523 96.0712 214.018C95.9032 214.513 95.8192 215.017 95.8192 215.53ZM106.286 210.56L109.842 219.282L113.384 210.56H114.406L110.29 220.5H109.394L105.264 210.56H106.286ZM116.53 220.5V210.56H117.51V220.5H116.53ZM120.045 215.46C120.045 214.853 120.147 214.261 120.353 213.682C120.567 213.094 120.875 212.562 121.277 212.086C121.678 211.601 122.173 211.218 122.761 210.938C123.349 210.649 124.016 210.504 124.763 210.504C125.649 210.504 126.405 210.709 127.031 211.12C127.665 211.521 128.132 212.039 128.431 212.674L127.661 213.15C127.446 212.711 127.175 212.366 126.849 212.114C126.522 211.853 126.172 211.666 125.799 211.554C125.435 211.442 125.071 211.386 124.707 211.386C124.109 211.386 123.582 211.507 123.125 211.75C122.667 211.983 122.28 212.301 121.963 212.702C121.655 213.094 121.421 213.537 121.263 214.032C121.104 214.517 121.025 215.012 121.025 215.516C121.025 216.067 121.118 216.594 121.305 217.098C121.491 217.602 121.753 218.05 122.089 218.442C122.425 218.825 122.817 219.133 123.265 219.366C123.722 219.59 124.217 219.702 124.749 219.702C125.122 219.702 125.505 219.637 125.897 219.506C126.289 219.375 126.653 219.175 126.989 218.904C127.334 218.633 127.609 218.283 127.815 217.854L128.627 218.274C128.421 218.769 128.104 219.189 127.675 219.534C127.245 219.879 126.765 220.141 126.233 220.318C125.71 220.495 125.197 220.584 124.693 220.584C124.011 220.584 123.386 220.439 122.817 220.15C122.247 219.851 121.753 219.459 121.333 218.974C120.922 218.479 120.605 217.929 120.381 217.322C120.157 216.706 120.045 216.085 120.045 215.46ZM139.259 220.57C138.596 220.57 137.98 220.43 137.411 220.15C136.841 219.861 136.347 219.473 135.927 218.988C135.507 218.503 135.18 217.961 134.947 217.364C134.723 216.767 134.611 216.151 134.611 215.516C134.611 214.844 134.723 214.209 134.947 213.612C135.18 213.005 135.502 212.469 135.913 212.002C136.323 211.535 136.809 211.167 137.369 210.896C137.929 210.625 138.54 210.49 139.203 210.49C140.183 210.49 140.981 210.691 141.597 211.092C142.213 211.493 142.679 212.016 142.997 212.66L142.241 213.164C141.923 212.548 141.499 212.095 140.967 211.806C140.435 211.517 139.842 211.372 139.189 211.372C138.638 211.372 138.139 211.489 137.691 211.722C137.252 211.955 136.874 212.268 136.557 212.66C136.239 213.052 135.997 213.495 135.829 213.99C135.67 214.485 135.591 214.998 135.591 215.53C135.591 216.09 135.684 216.622 135.871 217.126C136.057 217.621 136.323 218.064 136.669 218.456C137.014 218.839 137.411 219.142 137.859 219.366C138.316 219.581 138.806 219.688 139.329 219.688C139.935 219.688 140.509 219.539 141.051 219.24C141.592 218.932 142.11 218.461 142.605 217.826V218.862C141.662 220.001 140.547 220.57 139.259 220.57ZM142.451 216.37H140.239V215.614H143.277V220.5H142.451V216.37ZM145.99 220.5V210.56H150.19C150.619 210.56 151.011 210.649 151.366 210.826C151.721 211.003 152.029 211.246 152.29 211.554C152.561 211.853 152.766 212.189 152.906 212.562C153.055 212.926 153.13 213.299 153.13 213.682C153.13 214.158 153.037 214.606 152.85 215.026C152.673 215.446 152.416 215.801 152.08 216.09C151.753 216.379 151.366 216.571 150.918 216.664L153.354 220.5H152.248L149.91 216.832H146.97V220.5H145.99ZM146.97 215.964H150.218C150.61 215.964 150.951 215.857 151.24 215.642C151.529 215.427 151.753 215.147 151.912 214.802C152.071 214.447 152.15 214.074 152.15 213.682C152.15 213.281 152.057 212.912 151.87 212.576C151.693 212.231 151.45 211.955 151.142 211.75C150.843 211.535 150.507 211.428 150.134 211.428H146.97V215.964ZM159.841 220.57C159.141 220.57 158.506 220.43 157.937 220.15C157.367 219.87 156.877 219.492 156.467 219.016C156.056 218.531 155.739 217.989 155.515 217.392C155.291 216.785 155.179 216.165 155.179 215.53C155.179 214.867 155.295 214.237 155.529 213.64C155.762 213.033 156.089 212.497 156.509 212.03C156.938 211.554 157.437 211.181 158.007 210.91C158.576 210.63 159.192 210.49 159.855 210.49C160.555 210.49 161.189 210.635 161.759 210.924C162.328 211.213 162.813 211.601 163.215 212.086C163.625 212.571 163.943 213.113 164.167 213.71C164.391 214.307 164.503 214.919 164.503 215.544C164.503 216.207 164.386 216.841 164.153 217.448C163.919 218.045 163.593 218.582 163.173 219.058C162.753 219.525 162.258 219.893 161.689 220.164C161.119 220.435 160.503 220.57 159.841 220.57ZM156.159 215.53C156.159 216.071 156.247 216.594 156.425 217.098C156.602 217.593 156.854 218.036 157.181 218.428C157.507 218.811 157.895 219.119 158.343 219.352C158.8 219.576 159.299 219.688 159.841 219.688C160.41 219.688 160.919 219.571 161.367 219.338C161.824 219.095 162.211 218.778 162.529 218.386C162.855 217.985 163.103 217.537 163.271 217.042C163.439 216.547 163.523 216.043 163.523 215.53C163.523 214.989 163.434 214.471 163.257 213.976C163.079 213.481 162.823 213.038 162.487 212.646C162.16 212.254 161.773 211.946 161.325 211.722C160.877 211.498 160.382 211.386 159.841 211.386C159.281 211.386 158.772 211.503 158.315 211.736C157.867 211.969 157.479 212.287 157.153 212.688C156.835 213.08 156.588 213.523 156.411 214.018C156.243 214.513 156.159 215.017 156.159 215.53ZM171.096 220.57C170.312 220.57 169.65 220.43 169.108 220.15C168.567 219.87 168.138 219.497 167.82 219.03C167.503 218.554 167.27 218.017 167.12 217.42C166.98 216.823 166.91 216.207 166.91 215.572V210.56H167.876V215.572C167.876 216.085 167.928 216.589 168.03 217.084C168.142 217.579 168.32 218.022 168.562 218.414C168.805 218.806 169.132 219.119 169.542 219.352C169.953 219.576 170.466 219.688 171.082 219.688C171.717 219.688 172.24 219.571 172.65 219.338C173.07 219.095 173.397 218.778 173.63 218.386C173.873 217.994 174.046 217.555 174.148 217.07C174.251 216.575 174.302 216.076 174.302 215.572V210.56H175.282V215.572C175.282 216.235 175.208 216.869 175.058 217.476C174.909 218.083 174.666 218.615 174.33 219.072C174.004 219.529 173.574 219.893 173.042 220.164C172.51 220.435 171.862 220.57 171.096 220.57ZM178.319 220.5V210.56H182.435C182.864 210.56 183.256 210.649 183.611 210.826C183.975 211.003 184.287 211.246 184.549 211.554C184.81 211.853 185.015 212.189 185.165 212.562C185.314 212.926 185.389 213.299 185.389 213.682C185.389 214.223 185.267 214.737 185.025 215.222C184.791 215.698 184.46 216.085 184.031 216.384C183.601 216.683 183.097 216.832 182.519 216.832H179.299V220.5H178.319ZM179.299 215.964H182.477C182.869 215.964 183.209 215.857 183.499 215.642C183.788 215.427 184.012 215.147 184.171 214.802C184.329 214.457 184.409 214.083 184.409 213.682C184.409 213.271 184.315 212.893 184.129 212.548C183.942 212.203 183.695 211.932 183.387 211.736C183.088 211.531 182.757 211.428 182.393 211.428H179.299V215.964ZM194.269 210.56H195.095L199.225 220.5H198.189L196.901 217.392H192.435L191.161 220.5H190.111L194.269 210.56ZM196.677 216.622L194.675 211.708L192.645 216.622H196.677ZM207.449 211.428H203.907V220.5H202.927V211.428H199.385V210.56H207.449V211.428ZM213.496 220.5V210.56H216.87C217.925 210.56 218.802 210.784 219.502 211.232C220.212 211.671 220.744 212.268 221.098 213.024C221.453 213.771 221.63 214.601 221.63 215.516C221.63 216.524 221.434 217.401 221.042 218.148C220.66 218.895 220.109 219.473 219.39 219.884C218.681 220.295 217.841 220.5 216.87 220.5H213.496ZM220.65 215.516C220.65 214.723 220.501 214.018 220.202 213.402C219.913 212.786 219.488 212.305 218.928 211.96C218.368 211.605 217.682 211.428 216.87 211.428H214.476V219.632H216.87C217.692 219.632 218.382 219.45 218.942 219.086C219.502 218.722 219.927 218.232 220.216 217.616C220.506 216.991 220.65 216.291 220.65 215.516ZM228.208 220.57C227.508 220.57 226.874 220.43 226.304 220.15C225.735 219.87 225.245 219.492 224.834 219.016C224.424 218.531 224.106 217.989 223.882 217.392C223.658 216.785 223.546 216.165 223.546 215.53C223.546 214.867 223.663 214.237 223.896 213.64C224.13 213.033 224.456 212.497 224.876 212.03C225.306 211.554 225.805 211.181 226.374 210.91C226.944 210.63 227.56 210.49 228.222 210.49C228.922 210.49 229.557 210.635 230.126 210.924C230.696 211.213 231.181 211.601 231.582 212.086C231.993 212.571 232.31 213.113 232.534 213.71C232.758 214.307 232.87 214.919 232.87 215.544C232.87 216.207 232.754 216.841 232.52 217.448C232.287 218.045 231.96 218.582 231.54 219.058C231.12 219.525 230.626 219.893 230.056 220.164C229.487 220.435 228.871 220.57 228.208 220.57ZM224.526 215.53C224.526 216.071 224.615 216.594 224.792 217.098C224.97 217.593 225.222 218.036 225.548 218.428C225.875 218.811 226.262 219.119 226.71 219.352C227.168 219.576 227.667 219.688 228.208 219.688C228.778 219.688 229.286 219.571 229.734 219.338C230.192 219.095 230.579 218.778 230.896 218.386C231.223 217.985 231.47 217.537 231.638 217.042C231.806 216.547 231.89 216.043 231.89 215.53C231.89 214.989 231.802 214.471 231.624 213.976C231.447 213.481 231.19 213.038 230.854 212.646C230.528 212.254 230.14 211.946 229.692 211.722C229.244 211.498 228.75 211.386 228.208 211.386C227.648 211.386 227.14 211.503 226.682 211.736C226.234 211.969 225.847 212.287 225.52 212.688C225.203 213.08 224.956 213.523 224.778 214.018C224.61 214.513 224.526 215.017 224.526 215.53ZM239.464 220.57C238.68 220.57 238.017 220.43 237.476 220.15C236.935 219.87 236.505 219.497 236.188 219.03C235.871 218.554 235.637 218.017 235.488 217.42C235.348 216.823 235.278 216.207 235.278 215.572V210.56H236.244V215.572C236.244 216.085 236.295 216.589 236.398 217.084C236.51 217.579 236.687 218.022 236.93 218.414C237.173 218.806 237.499 219.119 237.91 219.352C238.321 219.576 238.834 219.688 239.45 219.688C240.085 219.688 240.607 219.571 241.018 219.338C241.438 219.095 241.765 218.778 241.998 218.386C242.241 217.994 242.413 217.555 242.516 217.07C242.619 216.575 242.67 216.076 242.67 215.572V210.56H243.65V215.572C243.65 216.235 243.575 216.869 243.426 217.476C243.277 218.083 243.034 218.615 242.698 219.072C242.371 219.529 241.942 219.893 241.41 220.164C240.878 220.435 240.229 220.57 239.464 220.57ZM250.676 220.57C250.014 220.57 249.398 220.43 248.828 220.15C248.259 219.861 247.764 219.473 247.344 218.988C246.924 218.503 246.598 217.961 246.364 217.364C246.14 216.767 246.028 216.151 246.028 215.516C246.028 214.844 246.14 214.209 246.364 213.612C246.598 213.005 246.92 212.469 247.33 212.002C247.741 211.535 248.226 211.167 248.786 210.896C249.346 210.625 249.958 210.49 250.62 210.49C251.6 210.49 252.398 210.691 253.014 211.092C253.63 211.493 254.097 212.016 254.414 212.66L253.658 213.164C253.341 212.548 252.916 212.095 252.384 211.806C251.852 211.517 251.26 211.372 250.606 211.372C250.056 211.372 249.556 211.489 249.108 211.722C248.67 211.955 248.292 212.268 247.974 212.66C247.657 213.052 247.414 213.495 247.246 213.99C247.088 214.485 247.008 214.998 247.008 215.53C247.008 216.09 247.102 216.622 247.288 217.126C247.475 217.621 247.741 218.064 248.086 218.456C248.432 218.839 248.828 219.142 249.276 219.366C249.734 219.581 250.224 219.688 250.746 219.688C251.353 219.688 251.927 219.539 252.468 219.24C253.01 218.932 253.528 218.461 254.022 217.826V218.862C253.08 220.001 251.964 220.57 250.676 220.57ZM253.868 216.37H251.656V215.614H254.694V220.5H253.868V216.37ZM257.408 220.5V210.56H258.388V219.632H264.128V220.5H257.408ZM269.35 210.56H270.176L274.306 220.5H273.27L271.982 217.392H267.516L266.242 220.5H265.192L269.35 210.56ZM271.758 216.622L269.756 211.708L267.726 216.622H271.758ZM282.104 212.422C281.964 212.263 281.801 212.123 281.614 212.002C281.427 211.871 281.217 211.759 280.984 211.666C280.751 211.573 280.499 211.498 280.228 211.442C279.967 211.386 279.687 211.358 279.388 211.358C278.52 211.358 277.881 211.526 277.47 211.862C277.069 212.189 276.868 212.637 276.868 213.206C276.868 213.598 276.961 213.906 277.148 214.13C277.344 214.354 277.647 214.536 278.058 214.676C278.469 214.816 278.991 214.961 279.626 215.11C280.335 215.259 280.947 215.437 281.46 215.642C281.973 215.847 282.37 216.127 282.65 216.482C282.93 216.827 283.07 217.299 283.07 217.896C283.07 218.353 282.981 218.75 282.804 219.086C282.627 219.422 282.379 219.702 282.062 219.926C281.745 220.15 281.367 220.318 280.928 220.43C280.489 220.533 280.009 220.584 279.486 220.584C278.973 220.584 278.478 220.533 278.002 220.43C277.535 220.318 277.092 220.159 276.672 219.954C276.252 219.739 275.86 219.469 275.496 219.142L275.986 218.344C276.163 218.531 276.373 218.708 276.616 218.876C276.868 219.035 277.143 219.179 277.442 219.31C277.75 219.441 278.077 219.543 278.422 219.618C278.777 219.683 279.141 219.716 279.514 219.716C280.307 219.716 280.923 219.571 281.362 219.282C281.81 218.993 282.034 218.563 282.034 217.994C282.034 217.583 281.922 217.257 281.698 217.014C281.474 216.762 281.138 216.557 280.69 216.398C280.242 216.239 279.691 216.085 279.038 215.936C278.347 215.777 277.764 215.6 277.288 215.404C276.812 215.208 276.453 214.951 276.21 214.634C275.977 214.307 275.86 213.878 275.86 213.346C275.86 212.73 276.009 212.212 276.308 211.792C276.616 211.363 277.036 211.041 277.568 210.826C278.1 210.602 278.711 210.49 279.402 210.49C279.841 210.49 280.247 210.537 280.62 210.63C281.003 210.714 281.353 210.84 281.67 211.008C281.997 211.176 282.3 211.386 282.58 211.638L282.104 212.422ZM285.162 217.126V216.244H289.25V217.126H285.162ZM298.782 219.632V220.5H292.104V210.56H298.656V211.428H293.084V215.012H297.942V215.838H293.084V219.632H298.782ZM301.335 220.5V210.56H302.315V219.632H308.055V220.5H301.335ZM310.198 220.5V210.56H311.178V219.632H316.918V220.5H310.198ZM319.06 220.5V210.56H320.04V220.5H319.06ZM332.038 220.5V212.408L328.44 218.694H327.824L324.212 212.408V220.5H323.232V210.56H324.24L328.118 217.364L332.024 210.56H333.018V220.5H332.038ZM339.29 210.56H340.116L344.246 220.5H343.21L341.922 217.392H337.456L336.182 220.5H335.132L339.29 210.56ZM341.698 216.622L339.696 211.708L337.666 216.622H341.698ZM347.351 212.366V220.5H346.371V210.56H347.183L353.707 218.848V210.574H354.687V220.5H353.777L347.351 212.366ZM362.153 220.5V210.56H366.353C366.783 210.56 367.175 210.649 367.529 210.826C367.884 211.003 368.192 211.246 368.453 211.554C368.724 211.853 368.929 212.189 369.069 212.562C369.219 212.926 369.293 213.299 369.293 213.682C369.293 214.158 369.2 214.606 369.013 215.026C368.836 215.446 368.579 215.801 368.243 216.09C367.917 216.379 367.529 216.571 367.081 216.664L369.517 220.5H368.411L366.073 216.832H363.133V220.5H362.153ZM363.133 215.964H366.381C366.773 215.964 367.114 215.857 367.403 215.642C367.693 215.427 367.917 215.147 368.075 214.802C368.234 214.447 368.313 214.074 368.313 213.682C368.313 213.281 368.22 212.912 368.033 212.576C367.856 212.231 367.613 211.955 367.305 211.75C367.007 211.535 366.671 211.428 366.297 211.428H363.133V215.964ZM378.678 219.632V220.5H372V210.56H378.552V211.428H372.98V215.012H377.838V215.838H372.98V219.632H378.678ZM384.311 210.56H385.137L389.267 220.5H388.231L386.943 217.392H382.477L381.203 220.5H380.153L384.311 210.56ZM386.719 216.622L384.717 211.708L382.687 216.622H386.719ZM391.392 220.5V210.56H392.372V219.632H398.112V220.5H391.392ZM410.79 219.632V220.5H404.112V210.56H410.664V211.428H405.092V215.012H409.95V215.838H405.092V219.632H410.79ZM419.099 212.422C418.959 212.263 418.796 212.123 418.609 212.002C418.422 211.871 418.212 211.759 417.979 211.666C417.746 211.573 417.494 211.498 417.223 211.442C416.962 211.386 416.682 211.358 416.383 211.358C415.515 211.358 414.876 211.526 414.465 211.862C414.064 212.189 413.863 212.637 413.863 213.206C413.863 213.598 413.956 213.906 414.143 214.13C414.339 214.354 414.642 214.536 415.053 214.676C415.464 214.816 415.986 214.961 416.621 215.11C417.33 215.259 417.942 215.437 418.455 215.642C418.968 215.847 419.365 216.127 419.645 216.482C419.925 216.827 420.065 217.299 420.065 217.896C420.065 218.353 419.976 218.75 419.799 219.086C419.622 219.422 419.374 219.702 419.057 219.926C418.74 220.15 418.362 220.318 417.923 220.43C417.484 220.533 417.004 220.584 416.481 220.584C415.968 220.584 415.473 220.533 414.997 220.43C414.53 220.318 414.087 220.159 413.667 219.954C413.247 219.739 412.855 219.469 412.491 219.142L412.981 218.344C413.158 218.531 413.368 218.708 413.611 218.876C413.863 219.035 414.138 219.179 414.437 219.31C414.745 219.441 415.072 219.543 415.417 219.618C415.772 219.683 416.136 219.716 416.509 219.716C417.302 219.716 417.918 219.571 418.357 219.282C418.805 218.993 419.029 218.563 419.029 217.994C419.029 217.583 418.917 217.257 418.693 217.014C418.469 216.762 418.133 216.557 417.685 216.398C417.237 216.239 416.686 216.085 416.033 215.936C415.342 215.777 414.759 215.6 414.283 215.404C413.807 215.208 413.448 214.951 413.205 214.634C412.972 214.307 412.855 213.878 412.855 213.346C412.855 212.73 413.004 212.212 413.303 211.792C413.611 211.363 414.031 211.041 414.563 210.826C415.095 210.602 415.706 210.49 416.397 210.49C416.836 210.49 417.242 210.537 417.615 210.63C417.998 210.714 418.348 210.84 418.665 211.008C418.992 211.176 419.295 211.386 419.575 211.638L419.099 212.422ZM429.535 211.428H425.993V220.5H425.013V211.428H421.471V210.56H429.535V211.428ZM433.847 210.56H434.673L438.803 220.5H437.767L436.479 217.392H432.013L430.739 220.5H429.689L433.847 210.56ZM436.255 216.622L434.253 211.708L432.223 216.622H436.255ZM447.027 211.428H443.485V220.5H442.505V211.428H438.963V210.56H447.027V211.428ZM455.894 219.632V220.5H449.216V210.56H455.768V211.428H450.196V215.012H455.054V215.838H450.196V219.632H455.894Z" fill="white"/>
</svg>
