<svg width="720" height="223" viewBox="0 0 720 223" fill="none" xmlns="http://www.w3.org/2000/svg">
<path d="M353.896 3.428H350.354V12.5H349.374V3.428H345.832V2.56H353.896V3.428ZM363.925 2.56V12.5H362.959V7.852H357.065V12.5H356.085V2.56H357.065V6.984H362.959V2.56H363.925ZM373.799 11.632V12.5H367.121V2.56H373.673V3.428H368.101V7.012H372.959V7.838H368.101V11.632H373.799Z" fill="white"/>
<path d="M168.254 101.5C168.764 98.015 168.934 94.955 168.934 90.28V67.925H142.839V90.28C142.839 94.955 143.009 98.015 143.519 101.5H129.664C130.174 98.015 130.344 94.955 130.344 90.28V46.42C130.344 41.745 130.174 38.685 129.664 35.2H143.519C143.009 38.685 142.839 41.745 142.839 46.42V65.97H168.934V46.42C168.934 41.745 168.764 38.685 168.254 35.2H182.194C181.684 38.685 181.514 41.745 181.514 46.42V90.28C181.514 94.955 181.684 98.015 182.194 101.5H168.254ZM226.338 102.945C203.813 102.945 189.958 87.05 189.958 68.52C189.958 49.905 203.728 34.18 226.338 34.18C249.033 34.18 262.803 49.905 262.803 68.52C262.803 87.05 248.948 102.945 226.338 102.945ZM203.728 68.52C203.728 88.75 212.908 101.075 226.338 101.075C239.853 101.075 249.033 88.75 249.033 68.52C249.033 48.205 239.938 35.965 226.338 35.965C212.823 35.965 203.728 48.205 203.728 68.52ZM270.575 101.5C271.085 98.015 271.255 94.955 271.255 90.28V46.42C271.255 41.745 271.085 38.685 270.575 35.2H284.43C283.92 38.685 283.75 41.745 283.75 46.42V99.8H286.98C294.8 99.8 303.98 98.525 312.31 95.38L310.78 101.5H270.575ZM343.212 102.945C322.047 102.945 308.872 87.05 308.872 68.605C308.872 49.99 322.302 34.18 344.657 34.18C355.877 34.18 365.652 38.09 374.237 46.505C373.812 49.65 371.857 52.2 368.457 52.2C365.397 52.2 363.782 49.905 362.337 47.27C358.597 41.49 352.137 35.88 344.317 35.88C330.802 35.88 321.707 48.885 321.707 65.29C321.707 85.435 334.032 97.165 348.992 97.165C361.997 97.165 372.537 88.07 375.002 72.94H376.447C373.812 92.49 359.362 102.945 343.212 102.945ZM416.828 102.945C394.303 102.945 380.448 87.05 380.448 68.52C380.448 49.905 394.218 34.18 416.828 34.18C439.523 34.18 453.293 49.905 453.293 68.52C453.293 87.05 439.438 102.945 416.828 102.945ZM394.218 68.52C394.218 88.75 403.398 101.075 416.828 101.075C430.343 101.075 439.523 88.75 439.523 68.52C439.523 48.205 430.428 35.965 416.828 35.965C403.313 35.965 394.218 48.205 394.218 68.52ZM489.709 102.605L463.869 42V77.615C463.869 85.86 464.634 95.975 465.739 101.5H460.044C461.234 95.975 461.914 85.86 461.914 77.53V46.42C461.914 41.66 461.744 38.685 461.234 35.2H474.579L496.594 86.2L518.524 35.2H531.444C530.934 38.685 530.764 41.745 530.764 46.42V90.28C530.764 94.955 530.934 98.015 531.444 101.5H517.589C518.099 98.015 518.269 94.955 518.269 90.28V40.555L491.664 102.605H489.709ZM542.85 101.5C543.36 98.015 543.53 94.955 543.53 90.28V46.42C543.53 41.745 543.36 38.685 542.85 35.2H564.95C581.1 35.2 589.94 40.555 589.94 50.33C589.94 58.83 583.14 63.25 571.835 64.61C585.265 65.97 594.615 72.09 594.615 83.14C594.615 94.615 584.84 101.5 568.01 101.5H542.85ZM556.025 99.8H564.44C574.3 99.8 581.355 93.425 581.355 82.885C581.355 72.94 574.895 65.63 564.61 65.63H556.025V99.8ZM556.025 63.93H561.975C572.515 63.93 577.615 59.085 577.615 50.67C577.615 41.405 571.92 36.9 561.975 36.9H556.025V63.93ZM228.695 190.03C211.78 190.03 197.16 176.43 197.16 156.285C197.16 137.245 210.25 121.18 233.115 121.18C244.845 121.18 254.62 125.345 262.865 133.505C262.355 136.99 260.145 139.2 257.17 139.2C254.62 139.2 252.665 137.67 250.965 134.27C246.46 126.875 239.66 122.88 232.86 122.88C219.09 122.88 210.25 136.99 210.25 153.735C210.25 170.48 219.26 184.08 234.05 184.08C247.31 184.08 254.875 173.625 256.065 158.24H253.345C247.65 158.24 241.275 158.92 235.58 159.94L233.03 156.455H272.215V158.24H266.01V165.38C266.01 173.54 266.605 182.125 268.05 188.5H253.94C255.3 182.55 255.98 174.56 256.065 166.825C252.07 182.21 241.53 190.03 228.695 190.03ZM329.858 188.755C318.468 188.67 313.878 184.675 309.288 174.05C304.613 162.915 304.103 155.86 295.433 155.86H292.798V177.28C292.798 181.955 292.968 185.015 293.478 188.5H279.623C280.133 185.015 280.303 181.955 280.303 177.28V133.42C280.303 128.745 280.133 125.685 279.623 122.2H299.003C315.663 122.2 327.903 126.45 327.903 139.115C327.903 149.995 318.978 154.5 303.168 155.435C311.583 156.88 317.193 160.79 321.953 171.925C326.798 182.89 330.283 186.97 335.553 186.97V188.5C332.918 188.67 331.303 188.755 329.858 188.755ZM292.798 154.16H298.068C309.033 154.16 315.068 149.825 315.068 139.115C315.068 128.405 309.203 123.9 299.003 123.9H292.798V154.16ZM372.415 189.945C349.89 189.945 336.035 174.05 336.035 155.52C336.035 136.905 349.805 121.18 372.415 121.18C395.11 121.18 408.88 136.905 408.88 155.52C408.88 174.05 395.025 189.945 372.415 189.945ZM349.805 155.52C349.805 175.75 358.985 188.075 372.415 188.075C385.93 188.075 395.11 175.75 395.11 155.52C395.11 135.205 386.015 122.965 372.415 122.965C358.9 122.965 349.805 135.205 349.805 155.52ZM442.13 189.86C426.915 189.86 418.16 181.445 418.16 165.465V133.42C418.16 128.83 417.905 125.94 417.395 122.2H431.25C430.825 125.855 430.655 128.83 430.655 133.42V165.465C430.655 178.725 435.585 186.205 446.21 186.205C456.41 186.205 462.105 179.235 462.105 165.465V145.32C462.105 137.245 461.34 127.3 460.235 122.2H466.015C464.91 127.3 464.06 137.16 464.06 145.32V165.465C464.06 181.87 456.92 189.86 442.13 189.86ZM474.947 188.5C475.457 185.015 475.627 181.955 475.627 177.28V133.42C475.627 128.745 475.457 125.685 474.947 122.2H494.752C511.412 122.2 523.652 126.45 523.652 140.305C523.652 154.16 511.412 158.495 493.902 158.495H488.122V177.28C488.122 181.955 488.292 185.015 488.802 188.5H474.947ZM488.122 156.625H493.902C505.037 156.625 510.902 152.205 510.902 140.305C510.902 128.405 505.037 123.9 494.752 123.9H488.122V156.625Z" fill="white"/>
<path d="M150.486 211.428H146.944V220.5H145.964V211.428H142.422V210.56H150.486V211.428ZM160.515 210.56V220.5H159.549V215.852H153.655V220.5H152.675V210.56H153.655V214.984H159.549V210.56H160.515ZM170.389 219.632V220.5H163.711V210.56H170.263V211.428H164.691V215.012H169.549V215.838H164.691V219.632H170.389ZM185.05 210.56V220.5H184.084V215.852H178.19V220.5H177.21V210.56H178.19V214.984H184.084V210.56H185.05ZM192.25 220.57C191.55 220.57 190.916 220.43 190.346 220.15C189.777 219.87 189.287 219.492 188.876 219.016C188.466 218.531 188.148 217.989 187.924 217.392C187.7 216.785 187.588 216.165 187.588 215.53C187.588 214.867 187.705 214.237 187.938 213.64C188.172 213.033 188.498 212.497 188.918 212.03C189.348 211.554 189.847 211.181 190.416 210.91C190.986 210.63 191.602 210.49 192.264 210.49C192.964 210.49 193.599 210.635 194.168 210.924C194.738 211.213 195.223 211.601 195.624 212.086C196.035 212.571 196.352 213.113 196.576 213.71C196.8 214.307 196.912 214.919 196.912 215.544C196.912 216.207 196.796 216.841 196.562 217.448C196.329 218.045 196.002 218.582 195.582 219.058C195.162 219.525 194.668 219.893 194.098 220.164C193.529 220.435 192.913 220.57 192.25 220.57ZM188.568 215.53C188.568 216.071 188.657 216.594 188.834 217.098C189.012 217.593 189.264 218.036 189.59 218.428C189.917 218.811 190.304 219.119 190.752 219.352C191.21 219.576 191.709 219.688 192.25 219.688C192.82 219.688 193.328 219.571 193.776 219.338C194.234 219.095 194.621 218.778 194.938 218.386C195.265 217.985 195.512 217.537 195.68 217.042C195.848 216.547 195.932 216.043 195.932 215.53C195.932 214.989 195.844 214.471 195.666 213.976C195.489 213.481 195.232 213.038 194.896 212.646C194.57 212.254 194.182 211.946 193.734 211.722C193.286 211.498 192.792 211.386 192.25 211.386C191.69 211.386 191.182 211.503 190.724 211.736C190.276 211.969 189.889 212.287 189.562 212.688C189.245 213.08 188.998 213.523 188.82 214.018C188.652 214.513 188.568 215.017 188.568 215.53ZM199.46 220.5V210.56H200.44V219.632H206.18V220.5H199.46ZM207.254 215.46C207.254 214.853 207.356 214.261 207.562 213.682C207.776 213.094 208.084 212.562 208.486 212.086C208.887 211.601 209.382 211.218 209.97 210.938C210.558 210.649 211.225 210.504 211.972 210.504C212.858 210.504 213.614 210.709 214.24 211.12C214.874 211.521 215.341 212.039 215.64 212.674L214.87 213.15C214.655 212.711 214.384 212.366 214.058 212.114C213.731 211.853 213.381 211.666 213.008 211.554C212.644 211.442 212.28 211.386 211.916 211.386C211.318 211.386 210.791 211.507 210.334 211.75C209.876 211.983 209.489 212.301 209.172 212.702C208.864 213.094 208.63 213.537 208.472 214.032C208.313 214.517 208.234 215.012 208.234 215.516C208.234 216.067 208.327 216.594 208.514 217.098C208.7 217.602 208.962 218.05 209.298 218.442C209.634 218.825 210.026 219.133 210.474 219.366C210.931 219.59 211.426 219.702 211.958 219.702C212.331 219.702 212.714 219.637 213.106 219.506C213.498 219.375 213.862 219.175 214.198 218.904C214.543 218.633 214.818 218.283 215.024 217.854L215.836 218.274C215.63 218.769 215.313 219.189 214.884 219.534C214.454 219.879 213.974 220.141 213.442 220.318C212.919 220.495 212.406 220.584 211.902 220.584C211.22 220.584 210.595 220.439 210.026 220.15C209.456 219.851 208.962 219.459 208.542 218.974C208.131 218.479 207.814 217.929 207.59 217.322C207.366 216.706 207.254 216.085 207.254 215.46ZM222.104 220.57C221.404 220.57 220.769 220.43 220.2 220.15C219.631 219.87 219.141 219.492 218.73 219.016C218.319 218.531 218.002 217.989 217.778 217.392C217.554 216.785 217.442 216.165 217.442 215.53C217.442 214.867 217.559 214.237 217.792 213.64C218.025 213.033 218.352 212.497 218.772 212.03C219.201 211.554 219.701 211.181 220.27 210.91C220.839 210.63 221.455 210.49 222.118 210.49C222.818 210.49 223.453 210.635 224.022 210.924C224.591 211.213 225.077 211.601 225.478 212.086C225.889 212.571 226.206 213.113 226.43 213.71C226.654 214.307 226.766 214.919 226.766 215.544C226.766 216.207 226.649 216.841 226.416 217.448C226.183 218.045 225.856 218.582 225.436 219.058C225.016 219.525 224.521 219.893 223.952 220.164C223.383 220.435 222.767 220.57 222.104 220.57ZM218.422 215.53C218.422 216.071 218.511 216.594 218.688 217.098C218.865 217.593 219.117 218.036 219.444 218.428C219.771 218.811 220.158 219.119 220.606 219.352C221.063 219.576 221.563 219.688 222.104 219.688C222.673 219.688 223.182 219.571 223.63 219.338C224.087 219.095 224.475 218.778 224.792 218.386C225.119 217.985 225.366 217.537 225.534 217.042C225.702 216.547 225.786 216.043 225.786 215.53C225.786 214.989 225.697 214.471 225.52 213.976C225.343 213.481 225.086 213.038 224.75 212.646C224.423 212.254 224.036 211.946 223.588 211.722C223.14 211.498 222.645 211.386 222.104 211.386C221.544 211.386 221.035 211.503 220.578 211.736C220.13 211.969 219.743 212.287 219.416 212.688C219.099 213.08 218.851 213.523 218.674 214.018C218.506 214.513 218.422 215.017 218.422 215.53ZM238.12 220.5V212.408L234.522 218.694H233.906L230.294 212.408V220.5H229.314V210.56H230.322L234.2 217.364L238.106 210.56H239.1V220.5H238.12ZM249.767 217.938C249.767 218.433 249.641 218.876 249.389 219.268C249.137 219.651 248.796 219.954 248.367 220.178C247.947 220.393 247.485 220.5 246.981 220.5H242.291V210.56H247.079C247.546 210.56 247.947 210.686 248.283 210.938C248.628 211.181 248.89 211.498 249.067 211.89C249.254 212.273 249.347 212.674 249.347 213.094C249.347 213.589 249.221 214.046 248.969 214.466C248.717 214.886 248.367 215.199 247.919 215.404C248.488 215.572 248.936 215.885 249.263 216.342C249.599 216.799 249.767 217.331 249.767 217.938ZM248.787 217.77C248.787 217.434 248.712 217.126 248.563 216.846C248.414 216.557 248.208 216.323 247.947 216.146C247.695 215.969 247.406 215.88 247.079 215.88H243.271V219.646H246.981C247.317 219.646 247.62 219.557 247.891 219.38C248.162 219.203 248.376 218.974 248.535 218.694C248.703 218.405 248.787 218.097 248.787 217.77ZM243.271 211.414V215.082H246.687C247.014 215.082 247.303 214.998 247.555 214.83C247.807 214.653 248.008 214.424 248.157 214.144C248.306 213.864 248.381 213.565 248.381 213.248C248.381 212.912 248.311 212.609 248.171 212.338C248.031 212.058 247.84 211.834 247.597 211.666C247.354 211.498 247.079 211.414 246.771 211.414H243.271ZM260.574 220.57C259.911 220.57 259.295 220.43 258.726 220.15C258.156 219.861 257.662 219.473 257.242 218.988C256.822 218.503 256.495 217.961 256.262 217.364C256.038 216.767 255.926 216.151 255.926 215.516C255.926 214.844 256.038 214.209 256.262 213.612C256.495 213.005 256.817 212.469 257.228 212.002C257.638 211.535 258.124 211.167 258.684 210.896C259.244 210.625 259.855 210.49 260.518 210.49C261.498 210.49 262.296 210.691 262.912 211.092C263.528 211.493 263.994 212.016 264.312 212.66L263.556 213.164C263.238 212.548 262.814 212.095 262.282 211.806C261.75 211.517 261.157 211.372 260.504 211.372C259.953 211.372 259.454 211.489 259.006 211.722C258.567 211.955 258.189 212.268 257.872 212.66C257.554 213.052 257.312 213.495 257.144 213.99C256.985 214.485 256.906 214.998 256.906 215.53C256.906 216.09 256.999 216.622 257.186 217.126C257.372 217.621 257.638 218.064 257.984 218.456C258.329 218.839 258.726 219.142 259.174 219.366C259.631 219.581 260.121 219.688 260.644 219.688C261.25 219.688 261.824 219.539 262.366 219.24C262.907 218.932 263.425 218.461 263.92 217.826V218.862C262.977 220.001 261.862 220.57 260.574 220.57ZM263.766 216.37H261.554V215.614H264.592V220.5H263.766V216.37ZM267.305 220.5V210.56H271.505C271.935 210.56 272.327 210.649 272.681 210.826C273.036 211.003 273.344 211.246 273.605 211.554C273.876 211.853 274.081 212.189 274.221 212.562C274.371 212.926 274.445 213.299 274.445 213.682C274.445 214.158 274.352 214.606 274.165 215.026C273.988 215.446 273.731 215.801 273.395 216.09C273.069 216.379 272.681 216.571 272.233 216.664L274.669 220.5H273.563L271.225 216.832H268.285V220.5H267.305ZM268.285 215.964H271.533C271.925 215.964 272.266 215.857 272.555 215.642C272.845 215.427 273.069 215.147 273.227 214.802C273.386 214.447 273.465 214.074 273.465 213.682C273.465 213.281 273.372 212.912 273.185 212.576C273.008 212.231 272.765 211.955 272.457 211.75C272.159 211.535 271.823 211.428 271.449 211.428H268.285V215.964ZM281.156 220.57C280.456 220.57 279.821 220.43 279.252 220.15C278.682 219.87 278.192 219.492 277.782 219.016C277.371 218.531 277.054 217.989 276.83 217.392C276.606 216.785 276.494 216.165 276.494 215.53C276.494 214.867 276.61 214.237 276.844 213.64C277.077 213.033 277.404 212.497 277.824 212.03C278.253 211.554 278.752 211.181 279.322 210.91C279.891 210.63 280.507 210.49 281.17 210.49C281.87 210.49 282.504 210.635 283.074 210.924C283.643 211.213 284.128 211.601 284.53 212.086C284.94 212.571 285.258 213.113 285.482 213.71C285.706 214.307 285.818 214.919 285.818 215.544C285.818 216.207 285.701 216.841 285.468 217.448C285.234 218.045 284.908 218.582 284.488 219.058C284.068 219.525 283.573 219.893 283.004 220.164C282.434 220.435 281.818 220.57 281.156 220.57ZM277.474 215.53C277.474 216.071 277.562 216.594 277.74 217.098C277.917 217.593 278.169 218.036 278.496 218.428C278.822 218.811 279.21 219.119 279.658 219.352C280.115 219.576 280.614 219.688 281.156 219.688C281.725 219.688 282.234 219.571 282.682 219.338C283.139 219.095 283.526 218.778 283.844 218.386C284.17 217.985 284.418 217.537 284.586 217.042C284.754 216.547 284.838 216.043 284.838 215.53C284.838 214.989 284.749 214.471 284.572 213.976C284.394 213.481 284.138 213.038 283.802 212.646C283.475 212.254 283.088 211.946 282.64 211.722C282.192 211.498 281.697 211.386 281.156 211.386C280.596 211.386 280.087 211.503 279.63 211.736C279.182 211.969 278.794 212.287 278.468 212.688C278.15 213.08 277.903 213.523 277.726 214.018C277.558 214.513 277.474 215.017 277.474 215.53ZM292.411 220.57C291.627 220.57 290.965 220.43 290.423 220.15C289.882 219.87 289.453 219.497 289.135 219.03C288.818 218.554 288.585 218.017 288.435 217.42C288.295 216.823 288.225 216.207 288.225 215.572V210.56H289.191V215.572C289.191 216.085 289.243 216.589 289.345 217.084C289.457 217.579 289.635 218.022 289.877 218.414C290.12 218.806 290.447 219.119 290.857 219.352C291.268 219.576 291.781 219.688 292.397 219.688C293.032 219.688 293.555 219.571 293.965 219.338C294.385 219.095 294.712 218.778 294.945 218.386C295.188 217.994 295.361 217.555 295.463 217.07C295.566 216.575 295.617 216.076 295.617 215.572V210.56H296.597V215.572C296.597 216.235 296.523 216.869 296.373 217.476C296.224 218.083 295.981 218.615 295.645 219.072C295.319 219.529 294.889 219.893 294.357 220.164C293.825 220.435 293.177 220.57 292.411 220.57ZM299.634 220.5V210.56H303.75C304.179 210.56 304.571 210.649 304.926 210.826C305.29 211.003 305.602 211.246 305.864 211.554C306.125 211.853 306.33 212.189 306.48 212.562C306.629 212.926 306.704 213.299 306.704 213.682C306.704 214.223 306.582 214.737 306.34 215.222C306.106 215.698 305.775 216.085 305.346 216.384C304.916 216.683 304.412 216.832 303.834 216.832H300.614V220.5H299.634ZM300.614 215.964H303.792C304.184 215.964 304.524 215.857 304.814 215.642C305.103 215.427 305.327 215.147 305.486 214.802C305.644 214.457 305.724 214.083 305.724 213.682C305.724 213.271 305.63 212.893 305.444 212.548C305.257 212.203 305.01 211.932 304.702 211.736C304.403 211.531 304.072 211.428 303.708 211.428H300.614V215.964ZM315.584 210.56H316.41L320.54 220.5H319.504L318.216 217.392H313.75L312.476 220.5H311.426L315.584 210.56ZM317.992 216.622L315.99 211.708L313.96 216.622H317.992ZM328.764 211.428H325.222V220.5H324.242V211.428H320.7V210.56H328.764V211.428ZM334.811 220.5V210.56H338.185C339.24 210.56 340.117 210.784 340.817 211.232C341.527 211.671 342.059 212.268 342.413 213.024C342.768 213.771 342.945 214.601 342.945 215.516C342.945 216.524 342.749 217.401 342.357 218.148C341.975 218.895 341.424 219.473 340.705 219.884C339.996 220.295 339.156 220.5 338.185 220.5H334.811ZM341.965 215.516C341.965 214.723 341.816 214.018 341.517 213.402C341.228 212.786 340.803 212.305 340.243 211.96C339.683 211.605 338.997 211.428 338.185 211.428H335.791V219.632H338.185C339.007 219.632 339.697 219.45 340.257 219.086C340.817 218.722 341.242 218.232 341.531 217.616C341.821 216.991 341.965 216.291 341.965 215.516ZM349.523 220.57C348.823 220.57 348.189 220.43 347.619 220.15C347.05 219.87 346.56 219.492 346.149 219.016C345.739 218.531 345.421 217.989 345.197 217.392C344.973 216.785 344.861 216.165 344.861 215.53C344.861 214.867 344.978 214.237 345.211 213.64C345.445 213.033 345.771 212.497 346.191 212.03C346.621 211.554 347.12 211.181 347.689 210.91C348.259 210.63 348.875 210.49 349.537 210.49C350.237 210.49 350.872 210.635 351.441 210.924C352.011 211.213 352.496 211.601 352.897 212.086C353.308 212.571 353.625 213.113 353.849 213.71C354.073 214.307 354.185 214.919 354.185 215.544C354.185 216.207 354.069 216.841 353.835 217.448C353.602 218.045 353.275 218.582 352.855 219.058C352.435 219.525 351.941 219.893 351.371 220.164C350.802 220.435 350.186 220.57 349.523 220.57ZM345.841 215.53C345.841 216.071 345.93 216.594 346.107 217.098C346.285 217.593 346.537 218.036 346.863 218.428C347.19 218.811 347.577 219.119 348.025 219.352C348.483 219.576 348.982 219.688 349.523 219.688C350.093 219.688 350.601 219.571 351.049 219.338C351.507 219.095 351.894 218.778 352.211 218.386C352.538 217.985 352.785 217.537 352.953 217.042C353.121 216.547 353.205 216.043 353.205 215.53C353.205 214.989 353.117 214.471 352.939 213.976C352.762 213.481 352.505 213.038 352.169 212.646C351.843 212.254 351.455 211.946 351.007 211.722C350.559 211.498 350.065 211.386 349.523 211.386C348.963 211.386 348.455 211.503 347.997 211.736C347.549 211.969 347.162 212.287 346.835 212.688C346.518 213.08 346.271 213.523 346.093 214.018C345.925 214.513 345.841 215.017 345.841 215.53ZM360.779 220.57C359.995 220.57 359.332 220.43 358.791 220.15C358.25 219.87 357.82 219.497 357.503 219.03C357.186 218.554 356.952 218.017 356.803 217.42C356.663 216.823 356.593 216.207 356.593 215.572V210.56H357.559V215.572C357.559 216.085 357.61 216.589 357.713 217.084C357.825 217.579 358.002 218.022 358.245 218.414C358.488 218.806 358.814 219.119 359.225 219.352C359.636 219.576 360.149 219.688 360.765 219.688C361.4 219.688 361.922 219.571 362.333 219.338C362.753 219.095 363.08 218.778 363.313 218.386C363.556 217.994 363.728 217.555 363.831 217.07C363.934 216.575 363.985 216.076 363.985 215.572V210.56H364.965V215.572C364.965 216.235 364.89 216.869 364.741 217.476C364.592 218.083 364.349 218.615 364.013 219.072C363.686 219.529 363.257 219.893 362.725 220.164C362.193 220.435 361.544 220.57 360.779 220.57ZM371.991 220.57C371.329 220.57 370.713 220.43 370.143 220.15C369.574 219.861 369.079 219.473 368.659 218.988C368.239 218.503 367.913 217.961 367.679 217.364C367.455 216.767 367.343 216.151 367.343 215.516C367.343 214.844 367.455 214.209 367.679 213.612C367.913 213.005 368.235 212.469 368.645 212.002C369.056 211.535 369.541 211.167 370.101 210.896C370.661 210.625 371.273 210.49 371.935 210.49C372.915 210.49 373.713 210.691 374.329 211.092C374.945 211.493 375.412 212.016 375.729 212.66L374.973 213.164C374.656 212.548 374.231 212.095 373.699 211.806C373.167 211.517 372.575 211.372 371.921 211.372C371.371 211.372 370.871 211.489 370.423 211.722C369.985 211.955 369.607 212.268 369.289 212.66C368.972 213.052 368.729 213.495 368.561 213.99C368.403 214.485 368.323 214.998 368.323 215.53C368.323 216.09 368.417 216.622 368.603 217.126C368.79 217.621 369.056 218.064 369.401 218.456C369.747 218.839 370.143 219.142 370.591 219.366C371.049 219.581 371.539 219.688 372.061 219.688C372.668 219.688 373.242 219.539 373.783 219.24C374.325 218.932 374.843 218.461 375.337 217.826V218.862C374.395 220.001 373.279 220.57 371.991 220.57ZM375.183 216.37H372.971V215.614H376.009V220.5H375.183V216.37ZM378.723 220.5V210.56H379.703V219.632H385.443V220.5H378.723ZM390.665 210.56H391.491L395.621 220.5H394.585L393.297 217.392H388.831L387.557 220.5H386.507L390.665 210.56ZM393.073 216.622L391.071 211.708L389.041 216.622H393.073ZM403.419 212.422C403.279 212.263 403.116 212.123 402.929 212.002C402.742 211.871 402.532 211.759 402.299 211.666C402.066 211.573 401.814 211.498 401.543 211.442C401.282 211.386 401.002 211.358 400.703 211.358C399.835 211.358 399.196 211.526 398.785 211.862C398.384 212.189 398.183 212.637 398.183 213.206C398.183 213.598 398.276 213.906 398.463 214.13C398.659 214.354 398.962 214.536 399.373 214.676C399.784 214.816 400.306 214.961 400.941 215.11C401.65 215.259 402.262 215.437 402.775 215.642C403.288 215.847 403.685 216.127 403.965 216.482C404.245 216.827 404.385 217.299 404.385 217.896C404.385 218.353 404.296 218.75 404.119 219.086C403.942 219.422 403.694 219.702 403.377 219.926C403.06 220.15 402.682 220.318 402.243 220.43C401.804 220.533 401.324 220.584 400.801 220.584C400.288 220.584 399.793 220.533 399.317 220.43C398.85 220.318 398.407 220.159 397.987 219.954C397.567 219.739 397.175 219.469 396.811 219.142L397.301 218.344C397.478 218.531 397.688 218.708 397.931 218.876C398.183 219.035 398.458 219.179 398.757 219.31C399.065 219.441 399.392 219.543 399.737 219.618C400.092 219.683 400.456 219.716 400.829 219.716C401.622 219.716 402.238 219.571 402.677 219.282C403.125 218.993 403.349 218.563 403.349 217.994C403.349 217.583 403.237 217.257 403.013 217.014C402.789 216.762 402.453 216.557 402.005 216.398C401.557 216.239 401.006 216.085 400.353 215.936C399.662 215.777 399.079 215.6 398.603 215.404C398.127 215.208 397.768 214.951 397.525 214.634C397.292 214.307 397.175 213.878 397.175 213.346C397.175 212.73 397.324 212.212 397.623 211.792C397.931 211.363 398.351 211.041 398.883 210.826C399.415 210.602 400.026 210.49 400.717 210.49C401.156 210.49 401.562 210.537 401.935 210.63C402.318 210.714 402.668 210.84 402.985 211.008C403.312 211.176 403.615 211.386 403.895 211.638L403.419 212.422ZM406.477 217.126V216.244H410.565V217.126H406.477ZM420.097 219.632V220.5H413.419V210.56H419.971V211.428H414.399V215.012H419.257V215.838H414.399V219.632H420.097ZM422.65 220.5V210.56H423.63V219.632H429.37V220.5H422.65ZM431.513 220.5V210.56H432.493V219.632H438.233V220.5H431.513ZM440.375 220.5V210.56H441.355V220.5H440.375ZM453.353 220.5V212.408L449.755 218.694H449.139L445.527 212.408V220.5H444.547V210.56H445.555L449.433 217.364L453.339 210.56H454.333V220.5H453.353ZM460.605 210.56H461.431L465.561 220.5H464.525L463.237 217.392H458.771L457.497 220.5H456.447L460.605 210.56ZM463.013 216.622L461.011 211.708L458.981 216.622H463.013ZM468.666 212.366V220.5H467.686V210.56H468.498L475.022 218.848V210.574H476.002V220.5H475.092L468.666 212.366ZM483.468 220.5V210.56H487.668C488.098 210.56 488.49 210.649 488.844 210.826C489.199 211.003 489.507 211.246 489.768 211.554C490.039 211.853 490.244 212.189 490.384 212.562C490.534 212.926 490.608 213.299 490.608 213.682C490.608 214.158 490.515 214.606 490.328 215.026C490.151 215.446 489.894 215.801 489.558 216.09C489.232 216.379 488.844 216.571 488.396 216.664L490.832 220.5H489.726L487.388 216.832H484.448V220.5H483.468ZM484.448 215.964H487.696C488.088 215.964 488.429 215.857 488.718 215.642C489.008 215.427 489.232 215.147 489.39 214.802C489.549 214.447 489.628 214.074 489.628 213.682C489.628 213.281 489.535 212.912 489.348 212.576C489.171 212.231 488.928 211.955 488.62 211.75C488.322 211.535 487.986 211.428 487.612 211.428H484.448V215.964ZM499.993 219.632V220.5H493.315V210.56H499.867V211.428H494.295V215.012H499.153V215.838H494.295V219.632H499.993ZM505.626 210.56H506.452L510.582 220.5H509.546L508.258 217.392H503.792L502.518 220.5H501.468L505.626 210.56ZM508.034 216.622L506.032 211.708L504.002 216.622H508.034ZM512.707 220.5V210.56H513.687V219.632H519.427V220.5H512.707ZM532.105 219.632V220.5H525.427V210.56H531.979V211.428H526.407V215.012H531.265V215.838H526.407V219.632H532.105ZM540.414 212.422C540.274 212.263 540.111 212.123 539.924 212.002C539.737 211.871 539.527 211.759 539.294 211.666C539.061 211.573 538.809 211.498 538.538 211.442C538.277 211.386 537.997 211.358 537.698 211.358C536.83 211.358 536.191 211.526 535.78 211.862C535.379 212.189 535.178 212.637 535.178 213.206C535.178 213.598 535.271 213.906 535.458 214.13C535.654 214.354 535.957 214.536 536.368 214.676C536.779 214.816 537.301 214.961 537.936 215.11C538.645 215.259 539.257 215.437 539.77 215.642C540.283 215.847 540.68 216.127 540.96 216.482C541.24 216.827 541.38 217.299 541.38 217.896C541.38 218.353 541.291 218.75 541.114 219.086C540.937 219.422 540.689 219.702 540.372 219.926C540.055 220.15 539.677 220.318 539.238 220.43C538.799 220.533 538.319 220.584 537.796 220.584C537.283 220.584 536.788 220.533 536.312 220.43C535.845 220.318 535.402 220.159 534.982 219.954C534.562 219.739 534.17 219.469 533.806 219.142L534.296 218.344C534.473 218.531 534.683 218.708 534.926 218.876C535.178 219.035 535.453 219.179 535.752 219.31C536.06 219.441 536.387 219.543 536.732 219.618C537.087 219.683 537.451 219.716 537.824 219.716C538.617 219.716 539.233 219.571 539.672 219.282C540.12 218.993 540.344 218.563 540.344 217.994C540.344 217.583 540.232 217.257 540.008 217.014C539.784 216.762 539.448 216.557 539 216.398C538.552 216.239 538.001 216.085 537.348 215.936C536.657 215.777 536.074 215.6 535.598 215.404C535.122 215.208 534.763 214.951 534.52 214.634C534.287 214.307 534.17 213.878 534.17 213.346C534.17 212.73 534.319 212.212 534.618 211.792C534.926 211.363 535.346 211.041 535.878 210.826C536.41 210.602 537.021 210.49 537.712 210.49C538.151 210.49 538.557 210.537 538.93 210.63C539.313 210.714 539.663 210.84 539.98 211.008C540.307 211.176 540.61 211.386 540.89 211.638L540.414 212.422ZM550.85 211.428H547.308V220.5H546.328V211.428H542.786V210.56H550.85V211.428ZM555.162 210.56H555.988L560.118 220.5H559.082L557.794 217.392H553.328L552.054 220.5H551.004L555.162 210.56ZM557.57 216.622L555.568 211.708L553.538 216.622H557.57ZM568.342 211.428H564.8V220.5H563.82V211.428H560.278V210.56H568.342V211.428ZM577.209 219.632V220.5H570.531V210.56H577.083V211.428H571.511V215.012H576.369V215.838H571.511V219.632H577.209Z" fill="white"/>
</svg>
